<svg width="500" height="79" viewBox="0 0 500 79" fill="none" xmlns="http://www.w3.org/2000/svg">
<path d="M103.933 72.4817V55.2859H108.259V72.4817H103.933Z" fill="white"/>
<path d="M122.832 72.4817V55.2859H129.211L131.098 60.7563L133.035 70.0313H133.87L133.085 62.3362L132.735 55.2859H136.909V72.4817H130.23L128.309 66.7211L126.806 57.7148H125.904L126.639 65.9258L127.006 72.4817H122.832Z" fill="white"/>
<path d="M154.121 72.4817L150.514 55.2859H154.972L156.809 64.1418L157.21 70.0313H158.129L158.53 64.1418L160.367 55.2859H164.825L161.218 72.4817H154.121Z" fill="white"/>
<path d="M178.404 72.4817V55.2859H188.958V57.7363H182.729V62.5297H188.625V64.9801H182.729V70.0313H188.958V72.4817H178.404Z" fill="white"/>
<path d="M208.792 72.6752C206.577 72.6752 204.996 72.3707 204.05 71.7616C203.103 71.1526 202.58 70.1424 202.48 68.7309C202.469 68.4515 202.463 68.1613 202.463 67.8604C202.463 67.5594 202.474 67.2621 202.497 66.9683C202.519 66.6674 202.552 66.3736 202.597 66.087H206.655C206.61 66.6387 206.582 67.1868 206.571 67.7314C206.571 68.2687 206.599 68.7703 206.655 69.236C206.711 69.6229 206.905 69.9167 207.239 70.1173C207.584 70.3108 208.102 70.4075 208.792 70.4075C209.472 70.4075 209.967 70.3108 210.279 70.1173C210.59 69.9167 210.774 69.6229 210.83 69.236C210.874 68.9494 210.902 68.6772 210.913 68.4192C210.936 68.1613 210.936 67.8998 210.913 67.6347C210.902 67.3696 210.874 67.0901 210.83 66.7964C210.796 66.4381 210.657 66.1229 210.412 65.8506C210.179 65.5783 209.783 65.3956 209.227 65.3025L206.738 64.8941C205.658 64.7149 204.807 64.457 204.183 64.1203C203.56 63.7763 203.109 63.3465 202.831 62.8306C202.563 62.3147 202.413 61.7057 202.38 61.0035C202.369 60.6524 202.363 60.3157 202.363 59.9933C202.363 59.6637 202.369 59.3377 202.38 59.0153C202.435 58.0767 202.675 57.3208 203.098 56.7476C203.532 56.1672 204.206 55.7481 205.118 55.4901C206.043 55.225 207.267 55.0925 208.792 55.0925C210.941 55.0925 212.494 55.397 213.452 56.006C214.42 56.6078 214.949 57.6109 215.038 59.0153C215.06 59.3448 215.066 59.7497 215.055 60.2297C215.044 60.7098 215.021 61.1719 214.988 61.6161H210.847C210.88 61.1002 210.902 60.5844 210.913 60.0685C210.924 59.5455 210.913 59.026 210.88 58.5101C210.858 58.1304 210.663 57.8438 210.295 57.6503C209.939 57.4569 209.438 57.3602 208.792 57.3602C208.102 57.3602 207.596 57.4569 207.273 57.6503C206.95 57.8438 206.755 58.1304 206.688 58.5101C206.633 58.9257 206.605 59.3413 206.605 59.7568C206.605 60.1724 206.633 60.588 206.688 61.0035C206.744 61.3761 206.889 61.6914 207.122 61.9493C207.367 62.2072 207.79 62.3828 208.392 62.4759L210.579 62.8091C211.726 62.9882 212.628 63.2569 213.285 63.6151C213.942 63.9662 214.409 64.4069 214.687 64.9371C214.977 65.4673 215.138 66.087 215.172 66.7964C215.183 67.0328 215.188 67.2585 215.188 67.4734C215.188 67.6812 215.183 67.889 215.172 68.0968C215.172 68.2974 215.161 68.5088 215.138 68.7309C215.049 70.1424 214.526 71.1526 213.569 71.7616C212.622 72.3707 211.03 72.6752 208.792 72.6752Z" fill="white"/>
<path d="M232.102 72.4817V57.7363H228.044V55.2859H240.486V57.7363H236.411V72.4817H232.102Z" fill="white"/>
<path d="M259.774 72.6752C257.547 72.6752 255.939 72.3742 254.948 71.7724C253.957 71.1634 253.439 70.1531 253.395 68.7416C253.372 67.9607 253.35 67.1618 253.328 66.345C253.317 65.5282 253.311 64.7078 253.311 63.8838C253.311 63.0527 253.317 62.2287 253.328 61.4119C253.35 60.5951 253.372 59.7927 253.395 59.0045C253.439 57.6002 253.957 56.5971 254.948 55.9952C255.939 55.3934 257.547 55.0925 259.774 55.0925C262.012 55.0925 263.615 55.3934 264.583 55.9952C265.552 56.5971 266.07 57.6002 266.137 59.0045C266.17 59.7998 266.198 60.6059 266.22 61.4227C266.242 62.2395 266.253 63.0634 266.253 63.8946C266.253 64.7185 266.242 65.5389 266.22 66.3557C266.198 67.1654 266.17 67.9607 266.137 68.7416C266.07 70.1531 265.552 71.1634 264.583 71.7724C263.615 72.3742 262.012 72.6752 259.774 72.6752ZM259.774 70.4075C260.464 70.4075 260.976 70.3108 261.31 70.1173C261.644 69.9238 261.817 69.6337 261.828 69.2468C261.873 68.4371 261.906 67.5773 261.928 66.6674C261.95 65.7503 261.962 64.8188 261.962 63.8731C261.962 62.9201 261.95 61.9887 261.928 61.0788C261.906 60.1688 261.873 59.309 261.828 58.4994C261.817 58.1196 261.639 57.8366 261.294 57.6503C260.948 57.4569 260.442 57.3602 259.774 57.3602C259.106 57.3602 258.599 57.4569 258.254 57.6503C257.909 57.8366 257.725 58.1196 257.703 58.4994C257.659 59.309 257.62 60.1688 257.586 61.0788C257.564 61.9887 257.553 62.9201 257.553 63.8731C257.553 64.8188 257.564 65.7503 257.586 66.6674C257.62 67.5773 257.659 68.4371 257.703 69.2468C257.725 69.6337 257.909 69.9238 258.254 70.1173C258.599 70.3108 259.106 70.4075 259.774 70.4075Z" fill="white"/>
<path d="M280.612 72.4817V55.2859H286.474C288.723 55.2859 290.343 55.5833 291.334 56.178C292.336 56.7726 292.876 57.7542 292.954 59.1227C292.976 59.5813 292.993 59.9969 293.004 60.3694C293.015 60.7348 293.015 61.1003 293.004 61.4657C292.993 61.8239 292.976 62.218 292.954 62.6479C292.909 63.522 292.681 64.2349 292.269 64.7866C291.857 65.3311 291.211 65.7431 290.332 66.0225L293.354 72.4817H288.779L286.274 66.4847H284.938V72.4817H280.612ZM284.938 64.0343H286.457C287.181 64.0343 287.715 63.9304 288.061 63.7226C288.417 63.5077 288.612 63.196 288.645 62.7876C288.678 62.3864 288.701 61.9708 288.712 61.5409C288.723 61.1038 288.723 60.6704 288.712 60.2405C288.701 59.8034 288.678 59.3843 288.645 58.983C288.612 58.5746 288.417 58.2665 288.061 58.0587C287.715 57.8438 287.187 57.7363 286.474 57.7363H284.938V64.0343Z" fill="white"/>
<path d="M313.088 72.6752C310.873 72.6752 309.292 72.3707 308.345 71.7616C307.399 71.1526 306.876 70.1424 306.776 68.7309C306.764 68.4515 306.759 68.1613 306.759 67.8604C306.759 67.5594 306.77 67.2621 306.792 66.9683C306.815 66.6674 306.848 66.3736 306.893 66.087H310.951C310.906 66.6387 310.878 67.1868 310.867 67.7314C310.867 68.2687 310.895 68.7703 310.951 69.236C311.006 69.6229 311.201 69.9167 311.535 70.1173C311.88 70.3108 312.398 70.4075 313.088 70.4075C313.767 70.4075 314.263 70.3108 314.574 70.1173C314.886 69.9167 315.07 69.6229 315.126 69.236C315.17 68.9494 315.198 68.6772 315.209 68.4192C315.231 68.1613 315.231 67.8998 315.209 67.6347C315.198 67.3696 315.17 67.0901 315.126 66.7964C315.092 66.4381 314.953 66.1229 314.708 65.8506C314.474 65.5783 314.079 65.3956 313.522 65.3025L311.034 64.8941C309.954 64.7149 309.102 64.457 308.479 64.1203C307.856 63.7763 307.405 63.3465 307.126 62.8306C306.859 62.3147 306.709 61.7057 306.675 61.0035C306.664 60.6524 306.659 60.3157 306.659 59.9933C306.659 59.6637 306.664 59.3377 306.675 59.0153C306.731 58.0767 306.97 57.3208 307.394 56.7476C307.828 56.1672 308.501 55.7481 309.414 55.4901C310.338 55.225 311.563 55.0925 313.088 55.0925C315.237 55.0925 316.79 55.397 317.747 56.006C318.716 56.6078 319.245 57.6109 319.334 59.0153C319.356 59.3448 319.362 59.7497 319.351 60.2297C319.339 60.7098 319.317 61.1719 319.284 61.6161H315.142C315.176 61.1002 315.198 60.5844 315.209 60.0685C315.22 59.5455 315.209 59.026 315.176 58.5101C315.153 58.1304 314.959 57.8438 314.591 57.6503C314.235 57.4569 313.734 57.3602 313.088 57.3602C312.398 57.3602 311.891 57.4569 311.568 57.6503C311.246 57.8438 311.051 58.1304 310.984 58.5101C310.928 58.9257 310.901 59.3413 310.901 59.7568C310.901 60.1724 310.928 60.588 310.984 61.0035C311.04 61.3761 311.184 61.6914 311.418 61.9493C311.663 62.2072 312.086 62.3828 312.687 62.4759L314.875 62.8091C316.022 62.9882 316.924 63.2569 317.58 63.6151C318.237 63.9662 318.705 64.4069 318.983 64.9371C319.273 65.4673 319.434 66.087 319.468 66.7964C319.479 67.0328 319.484 67.2585 319.484 67.4734C319.484 67.6812 319.479 67.889 319.468 68.0968C319.468 68.2974 319.456 68.5088 319.434 68.7309C319.345 70.1424 318.822 71.1526 317.864 71.7616C316.918 72.3707 315.326 72.6752 313.088 72.6752Z" fill="white"/>
<path d="M44.9006 0.504289L65.8628 0L55.7185 18.2961L34.7559 18.8008L44.9006 0.504289Z" fill="white"/>
<path d="M55.7186 20.1187L34.7564 20.6233L45.5736 38.4158L66.5365 37.9112L55.7186 20.1187Z" fill="white"/>
<path d="M22.7898 39.8276L32.9348 21.5309L43.7533 39.3229L33.608 57.6199L22.7898 39.8276Z" fill="white"/>
<path d="M45.5788 40.2348L66.5412 39.7305L56.3967 58.0266L35.434 58.5313L45.5788 40.2348Z" fill="white"/>
<path d="M35.4348 60.3523L56.397 59.8477L67.2149 77.64L46.2522 78.1447L35.4348 60.3523Z" fill="white"/>
<path d="M68.3689 40.6419L58.2239 58.9387L69.0421 76.7309L79.1873 58.4341L68.3689 40.6419Z" fill="white"/>
<path d="M0.000508759 41.2423L20.9627 40.738L31.7809 58.5302L10.818 59.0347L0.000508759 41.2423Z" fill="white"/>
<path d="M31.107 20.6198L10.1448 21.124L0 39.4208L20.9627 38.916L31.107 20.6198Z" fill="white"/>
<path d="M67.6907 0.910624L57.5457 19.2074L68.3639 36.9999L78.5091 18.7026L67.6907 0.910624Z" fill="white"/>
<path d="M118.254 5.60042C118.256 5.60042 118.258 5.60042 118.26 5.60042L139.359 5.60042V13.8057H118.13V13.7967C116.685 13.8133 115.256 14.1059 113.92 14.6592C112.544 15.2291 111.294 16.0645 110.241 17.1176C109.188 18.1707 108.352 19.4209 107.782 20.7968C107.212 22.1727 106.919 23.6475 106.919 25.1368C106.919 26.626 107.212 28.1008 107.782 29.4767C108.352 30.8526 109.188 32.1028 110.241 33.1559C111.294 34.209 112.544 35.0444 113.92 35.6143C115.256 36.1676 116.685 36.4602 118.13 36.4768V36.4678H139.359V44.6731H118.13V44.6727C115.608 44.6558 113.114 44.1512 110.784 43.186C108.413 42.2042 106.26 40.7651 104.446 38.951C102.632 37.1369 101.193 34.9832 100.211 32.613C99.2289 30.2427 98.7236 27.7023 98.7236 25.1368C98.7236 22.5712 99.2289 20.0308 100.211 17.6605C101.193 15.2903 102.632 13.1366 104.446 11.3225C106.26 9.50836 108.413 8.06932 110.784 7.08753C113.114 6.12236 115.608 5.61766 118.13 5.60085V5.60042H118.254Z" fill="white"/>
<path d="M183.307 8.47757C183.246 8.38373 183.182 8.29138 183.115 8.2006C182.49 7.34811 181.651 6.66335 180.678 6.21037C179.705 5.75738 178.629 5.55096 177.552 5.61041C176.474 5.66987 175.429 5.99325 174.516 6.55032C173.691 7.05336 172.997 7.73211 172.485 8.53337L171.667 10.5187L171.663 10.5384L157.593 44.6731H167.538L177.915 19.495L188.293 44.6731H198.229L183.307 8.47757Z" fill="white"/>
<path d="M257.098 5.60042H216.463V13.8057H231.831V44.6731H241.86V13.8057H257.098V5.60042Z" fill="white"/>
<path d="M283.147 44.8033C278.831 44.8033 275.332 41.3046 275.332 36.9888V13.415C275.332 9.0991 278.831 5.60042 283.147 5.60042L315.968 5.60042V13.8057H285.361V21.0992H315.968V29.3045H285.361V36.5981H315.968V44.8033H283.147Z" fill="white"/>
<path d="M372.613 44.8151C370.747 44.8819 368.867 44.1495 367.525 42.6503L344.23 16.6254V44.8033H334.202V12.1269C334.202 8.52472 337.126 5.60684 340.728 5.61476L343.828 5.62157C343.909 5.62026 343.989 5.62044 344.07 5.6221L344.23 5.62245V5.62739C345.916 5.70357 347.571 6.43125 348.786 7.78563L372.232 33.9364V5.60042L382.261 5.60042V38.2992C382.261 41.8926 379.35 44.8069 375.757 44.8113L372.613 44.8151Z" fill="white"/>
<path d="M426.209 8.47757C426.148 8.38373 426.084 8.29138 426.017 8.2006C425.392 7.34811 424.553 6.66335 423.58 6.21037C422.607 5.75738 421.531 5.55096 420.454 5.61041C419.376 5.66987 418.331 5.99325 417.418 6.55032C416.592 7.05336 415.898 7.73211 415.387 8.53337L414.569 10.5187L414.565 10.5384L400.495 44.6731H410.439L420.817 19.495L431.195 44.6731H441.13L426.209 8.47757Z" fill="white"/>
<path d="M485.079 8.47757C485.017 8.38373 484.953 8.29138 484.887 8.2006C484.261 7.34811 483.422 6.66335 482.449 6.21037C481.476 5.75738 480.401 5.55096 479.323 5.61041C478.245 5.66987 477.201 5.99325 476.287 6.55032C475.462 7.05336 474.768 7.73211 474.257 8.53337L473.438 10.5187L473.434 10.5384L459.364 44.6731H469.309L479.687 19.495L490.065 44.6731H500L485.079 8.47757Z" fill="white"/>
</svg>
