<svg width="3839" height="614" viewBox="0 0 3839 614" fill="none" xmlns="http://www.w3.org/2000/svg">
<path fill-rule="evenodd" clip-rule="evenodd" d="M344.747 3.87193L505.695 0L427.807 140.477L266.855 144.353L344.747 3.87193ZM427.807 154.472L266.859 158.346L349.914 294.956L510.867 291.082L427.807 154.472ZM174.98 305.797L252.874 165.314L335.938 301.921L258.042 442.406L174.98 305.797ZM349.954 308.923L510.904 305.051L433.014 445.528L272.062 449.404L349.954 308.923ZM272.068 463.385L433.016 459.511L516.076 596.12L355.125 599.995L272.068 463.385ZM524.936 312.048L447.043 452.531L530.105 589.14L608 448.657L524.936 312.048ZM0.00390625 316.658L160.952 312.786L244.014 449.395L83.0603 453.269L0.00390625 316.658ZM238.839 158.318L77.8914 162.19L0 302.673L160.952 298.797L238.839 158.318ZM519.729 6.99177L441.836 147.474L524.898 284.085L602.793 143.599L519.729 6.99177Z" fill="white"/>
<path fill-rule="evenodd" clip-rule="evenodd" d="M907.956 43C907.97 43 907.985 43 908 43L1070 43V106H907V105.931C895.906 106.058 884.934 108.305 874.678 112.553C864.114 116.929 854.515 123.343 846.429 131.429C838.343 139.515 831.929 149.114 827.553 159.678C823.178 170.242 820.925 181.565 820.925 193C820.925 204.435 823.178 215.758 827.553 226.322C831.929 236.886 838.343 246.485 846.429 254.571C854.515 262.657 864.114 269.071 874.678 273.447C884.934 277.695 895.906 279.942 907 280.069V280H1070V343H908H907V342.997C887.642 342.868 868.488 338.993 850.598 331.582C832.399 324.044 815.863 312.995 801.934 299.066C788.005 285.137 776.956 268.601 769.418 250.403C761.88 232.204 758 212.698 758 193C758 173.302 761.88 153.796 769.418 135.597C776.956 117.399 788.005 100.863 801.934 86.934C815.863 73.0052 832.399 61.9563 850.597 54.4181C868.488 47.0074 887.642 43.1324 907 43.0033V43H907.956Z" fill="white"/>
<path fill-rule="evenodd" clip-rule="evenodd" d="M1407.43 65.0908C1406.96 64.3703 1406.47 63.6612 1405.96 62.9642C1401.16 56.4188 1394.72 51.1612 1387.25 47.6832C1379.78 44.2052 1371.52 42.6203 1363.24 43.0768C1354.97 43.5333 1346.95 46.0162 1339.93 50.2934C1333.6 54.1557 1328.27 59.3671 1324.34 65.5192L1318.06 80.7628L1318.03 80.914L1210 343H1286.35L1366.04 149.683L1445.72 343H1522L1407.43 65.0908Z" fill="white"/>
<path fill-rule="evenodd" clip-rule="evenodd" d="M1974 43H1662V106H1780L1780 343H1857L1857 106H1974V43Z" fill="white"/>
<path fill-rule="evenodd" clip-rule="evenodd" d="M2174 344C2140.86 344 2114 317.137 2114 284L2114 103C2114 69.8629 2140.86 43 2174 43L2191 43L2426 43V106H2191L2191 162H2426V225H2191V281H2426V344H2191H2186H2174Z" fill="white"/>
<path fill-rule="evenodd" clip-rule="evenodd" d="M2860.93 344.09C2846.6 344.603 2832.16 338.98 2821.85 327.469L2643 127.65L2643 344H2566L2566 93.11C2566 65.4528 2588.45 43.0493 2616.11 43.1101L2639.91 43.1624C2640.53 43.1524 2641.15 43.1538 2641.77 43.1665L2643 43.1692V43.2071C2655.95 43.792 2668.65 49.3792 2677.98 59.7781L2858 260.564L2858 43L2935 43V294.061C2935 321.651 2912.65 344.027 2885.06 344.061L2860.93 344.09Z" fill="white"/>
<path fill-rule="evenodd" clip-rule="evenodd" d="M3272.43 65.0908C3271.96 64.3703 3271.47 63.6612 3270.96 62.9642C3266.16 56.4188 3259.72 51.1612 3252.25 47.6832C3244.78 44.2052 3236.52 42.6203 3228.24 43.0768C3219.97 43.5333 3211.95 46.0162 3204.93 50.2934C3198.6 54.1557 3193.27 59.3671 3189.34 65.5192L3183.06 80.7628L3183.03 80.914L3075 343H3151.35L3231.04 149.683L3310.72 343H3387L3272.43 65.0908Z" fill="white"/>
<path fill-rule="evenodd" clip-rule="evenodd" d="M3724.43 65.0908C3723.96 64.3703 3723.47 63.6612 3722.96 62.9642C3718.16 56.4188 3711.72 51.1612 3704.25 47.6832C3696.78 44.2052 3688.52 42.6203 3680.24 43.0768C3671.97 43.5333 3663.95 46.0162 3656.93 50.2934C3650.6 54.1557 3645.27 59.3671 3641.34 65.5192L3635.06 80.7628L3635.03 80.914L3527 343H3603.35L3683.04 149.683L3762.72 343H3839L3724.43 65.0908Z" fill="white"/>
<path d="M886.667 559H794.299V424.149H886.667V442.172H825.195V478.218H873.471V496.241H825.195V540.977H886.667V559ZM1010.34 424.149L1044.46 470.816L1078.9 424.149H1109.79L1060.23 491.736L1109.79 559H1078.9L1044.46 512.655L1010.34 559H979.448L1029.01 491.736L979.448 424.149H1010.34ZM1257.52 481.437C1266.32 481.437 1270.71 478.433 1270.71 472.425V451.184C1270.71 445.176 1266.32 442.172 1257.52 442.172H1232.74V481.437H1257.52ZM1201.84 559V424.149H1263.96C1274.25 424.149 1283.05 426.295 1290.35 430.586C1297.86 434.877 1301.61 440.778 1301.61 448.287V475.322C1301.61 482.831 1297.86 488.732 1290.35 493.023C1283.05 497.314 1274.25 499.46 1263.96 499.46H1232.74V559H1201.84ZM1495.66 559H1403.29V424.149H1434.18V540.977H1495.66V559ZM1654.24 540.977C1662.82 540.977 1667.11 537.973 1667.11 531.966V451.184C1667.11 445.176 1662.82 442.172 1654.24 442.172H1640.08C1631.28 442.172 1626.88 445.176 1626.88 451.184V531.966C1626.88 537.973 1631.28 540.977 1640.08 540.977H1654.24ZM1595.98 448.287C1595.98 440.992 1599.63 435.199 1606.93 430.908C1614.44 426.402 1623.45 424.149 1633.96 424.149H1660.35C1676.87 424.149 1688.46 428.762 1695.11 437.989C1697.26 440.992 1698.33 444.425 1698.33 448.287V534.862C1698.33 542.157 1694.57 548.057 1687.07 552.563C1679.77 556.854 1670.87 559 1660.35 559H1633.96C1617.44 559 1605.85 554.387 1599.2 545.161C1597.06 542.157 1595.98 538.724 1595.98 534.862V448.287ZM1857.21 481.115C1866.01 481.115 1870.41 478.111 1870.41 472.103V451.184C1870.41 445.176 1866.01 442.172 1857.21 442.172H1832.43V481.115H1857.21ZM1863.97 499.138L1908.38 559H1875.88L1832.43 500.425V559H1801.53V424.149H1863.65C1873.95 424.149 1882.74 426.295 1890.04 430.586C1897.55 434.877 1901.3 440.778 1901.3 448.287V475C1901.3 482.51 1897.66 488.41 1890.36 492.701C1883.07 496.992 1874.27 499.138 1863.97 499.138ZM2090.97 559H1998.61V424.149H2090.97V442.172H2029.5V478.218H2077.78V496.241H2029.5V540.977H2090.97V559ZM2247.8 481.115C2256.6 481.115 2261 478.111 2261 472.103V451.184C2261 445.176 2256.6 442.172 2247.8 442.172H2223.02V481.115H2247.8ZM2254.56 499.138L2298.97 559H2266.47L2223.02 500.425V559H2192.12V424.149H2254.24C2264.54 424.149 2273.33 426.295 2280.63 430.586C2288.14 434.877 2291.89 440.778 2291.89 448.287V475C2291.89 482.51 2288.24 488.41 2280.95 492.701C2273.65 496.992 2264.86 499.138 2254.56 499.138Z" fill="white"/>
</svg>
